<?xml version="1.0" encoding="UTF-8" standalone="no"?>
<!DOCTYPE svg PUBLIC "-//W3C//DTD SVG 1.1//EN" "http://www.w3.org/Graphics/SVG/1.1/DTD/svg11.dtd">
<svg width="100%" height="100%" viewBox="0 0 192 192" version="1.1" xmlns="http://www.w3.org/2000/svg" xmlns:xlink="http://www.w3.org/1999/xlink" xml:space="preserve" xmlns:serif="http://www.serif.com/" style="fill-rule:evenodd;clip-rule:evenodd;stroke-linejoin:round;stroke-miterlimit:2;">
    <g id="icon" transform="matrix(3.84,0,0,4.26667,-2088.96,-162.133)">
        <rect x="544" y="38" width="50" height="45" style="fill:none;"/>
        <g transform="matrix(2.08333,0,0,1.55172,-412.25,-76.8276)">
            <rect x="459" y="74" width="24" height="29"/>
        </g>
        <g transform="matrix(0.350469,-0.102759,0.114177,0.315422,515.775,62.8169)">
            <path d="M167.964,104.102L129.084,50.246L150.828,34.694L189.276,88.118L167.964,104.102ZM139.164,89.702C131.292,89.702 124.044,88.406 117.42,85.814C110.796,83.222 105.036,79.574 100.14,74.87C95.244,70.166 91.476,64.598 88.836,58.166C86.196,51.734 84.876,44.726 84.876,37.142C84.876,29.462 86.196,22.43 88.836,16.046C91.476,9.662 95.244,4.118 100.14,-0.586C105.036,-5.29 110.796,-8.938 117.42,-11.53C124.044,-14.122 131.292,-15.418 139.164,-15.418C147.132,-15.418 154.404,-14.122 160.98,-11.53C167.556,-8.938 173.292,-5.29 178.188,-0.586C183.084,4.118 186.852,9.662 189.492,16.046C192.132,22.43 193.452,29.462 193.452,37.142C193.452,44.726 192.132,51.734 189.492,58.166C186.852,64.598 183.084,70.166 178.188,74.87C173.292,79.574 167.556,83.222 160.98,85.814C154.404,88.406 147.132,89.702 139.164,89.702ZM139.164,60.902C142.428,60.902 145.428,60.326 148.164,59.174C150.9,58.022 153.3,56.366 155.364,54.206C157.428,52.046 159.012,49.526 160.116,46.646C161.22,43.766 161.772,40.598 161.772,37.142C161.772,33.686 161.22,30.518 160.116,27.638C159.012,24.758 157.428,22.238 155.364,20.078C153.3,17.918 150.9,16.262 148.164,15.11C145.428,13.958 142.428,13.382 139.164,13.382C135.9,13.382 132.9,13.958 130.164,15.11C127.428,16.262 125.028,17.918 122.964,20.078C120.9,22.238 119.316,24.758 118.212,27.638C117.108,30.518 116.556,33.686 116.556,37.142C116.556,40.598 117.108,43.766 118.212,46.646C119.316,49.526 120.9,52.046 122.964,54.206C125.028,56.366 127.428,58.022 130.164,59.174C132.9,60.326 135.9,60.902 139.164,60.902Z" style="fill:rgb(255,221,0);fill-rule:nonzero;"/>
        </g>
    </g>
</svg>
