<?xml version="1.0" encoding="UTF-8" standalone="no"?>
<!DOCTYPE svg PUBLIC "-//W3C//DTD SVG 1.1//EN" "http://www.w3.org/Graphics/SVG/1.1/DTD/svg11.dtd">
<svg width="100%" height="100%" viewBox="0 0 192 192" version="1.1" xmlns="http://www.w3.org/2000/svg" xmlns:xlink="http://www.w3.org/1999/xlink" xml:space="preserve" xmlns:serif="http://www.serif.com/" style="fill-rule:evenodd;clip-rule:evenodd;stroke-linejoin:round;stroke-miterlimit:2;">
    <g id="icon" transform="matrix(3.84,0,0,4.26667,-2088.96,-162.133)">
        <rect x="544" y="38" width="50" height="45" style="fill:none;"/>
        <g transform="matrix(2.08333,0,0,1.55172,-412.25,-76.8276)">
            <rect x="459" y="74" width="24" height="29"/>
        </g>
        <g transform="matrix(0.879652,-0.257918,0.286575,0.791687,246.296,-28.1678)">
            <circle cx="298.703" cy="209.193" r="21.373" style="fill:rgb(255,221,0);"/>
        </g>
        <g transform="matrix(0.213791,0.139662,-0.155623,0.192961,575.834,18.3394)">
            <rect x="148.354" y="142.919" width="32.563" height="37.359" style="fill:rgb(255,221,0);"/>
        </g>
        <g transform="matrix(0.894403,0,0,0.804963,342.218,7.78753)">
            <g transform="matrix(0.347223,-0.677544,0.450218,0.230724,125.394,195.736)">
                <path d="M248.956,114.742C248.956,117.644 247.391,120 245.462,120L217.511,120C215.582,120 214.017,117.644 214.017,114.742C214.017,111.84 215.582,109.484 217.511,109.484L245.462,109.484C247.391,109.484 248.956,111.84 248.956,114.742Z"/>
            </g>
            <g transform="matrix(-0.344009,-0.255224,0.301429,-0.406288,293.751,177.662)">
                <path d="M248.956,114.742C248.956,117.644 246.174,120 242.746,120L220.227,120C216.8,120 214.017,117.644 214.017,114.742C214.017,111.84 216.8,109.484 220.227,109.484L242.746,109.484C246.174,109.484 248.956,111.84 248.956,114.742Z"/>
            </g>
        </g>
    </g>
</svg>
